<svg xmlns="http://www.w3.org/2000/svg" width="128" height="128" viewBox="0 0 128 128">
  <rect width="128" height="128" rx="24" fill="#121824"/>
  <!-- Connectome Compass Ring Background -->
  <circle cx="64" cy="64" r="50" fill="none" stroke="#2a3b5c" stroke-width="2" stroke-dasharray="4 4"/>
  <circle cx="64" cy="64" r="40" fill="none" stroke="#00e5ff" stroke-width="1.5" opacity="0.4"/>
  <!-- Compass Nodes -->
  <circle cx="64" cy="24" r="3" fill="#00e5ff"/>
  <circle cx="104" cy="64" r="3" fill="#ff007f"/>
  <circle cx="64" cy="104" r="3" fill="#00e5ff"/>
  <circle cx="24" cy="64" r="3" fill="#ff007f"/>
  <!-- Wings (translucent iridescent) -->
  <ellipse cx="44" cy="54" rx="24" ry="10" transform="rotate(-35 44 54)" fill="#00ffff" opacity="0.35" stroke="#ffffff" stroke-width="0.75"/>
  <ellipse cx="84" cy="54" rx="24" ry="10" transform="rotate(35 84 54)" fill="#00ffff" opacity="0.35" stroke="#ffffff" stroke-width="0.75"/>
  <!-- Drosophila Body -->
  <!-- Thorax -->
  <ellipse cx="64" cy="62" rx="11" ry="14" fill="#d48a37"/>
  <!-- Scutum Stripe -->
  <ellipse cx="64" cy="62" rx="6" ry="10" fill="#8b5219"/>
  <!-- Abdomen with Tergite Stripes -->
  <ellipse cx="64" cy="85" rx="9" ry="15" fill="#f0ad4e"/>
  <path d="M56 77 Q64 80 72 77" stroke="#3e2723" stroke-width="2.5" fill="none"/>
  <path d="M56 83 Q64 86 72 83" stroke="#3e2723" stroke-width="2.5" fill="none"/>
  <path d="M57 89 Q64 92 71 89" stroke="#3e2723" stroke-width="2.5" fill="none"/>
  <path d="M59 95 Q64 97 69 95" stroke="#3e2723" stroke-width="2.5" fill="none"/>
  <!-- Head & Ruby Eyes -->
  <circle cx="64" cy="46" r="9" fill="#c27429"/>
  <circle cx="56" cy="44" r="6" fill="#e60026"/>
  <circle cx="55" cy="43" r="2" fill="#ff8da1"/>
  <circle cx="72" cy="44" r="6" fill="#e60026"/>
  <circle cx="71" cy="43" r="2" fill="#ff8da1"/>
  <!-- Antennae -->
  <path d="M62 38 Q60 32 57 30" stroke="#795548" stroke-width="1.5" fill="none"/>
  <path d="M66 38 Q68 32 71 30" stroke="#795548" stroke-width="1.5" fill="none"/>
</svg>
